# xmcd
#
# Track frame offsets:
#       150
#       8495
#       20592
#       32915
#       45042
#       57332
#       67892
#       79287
#       94115
#       111750
#       123472
#       143485
#       156560
#
# Disc length: 2257 seconds
#
# Revision: 0
# Processed by: cddbd v1.4PL0 Copyright (c) Steve Scherf et al.
# Submitted via: CD-DA_X-Tractor v0.24
#
DISCID=9f08cf0d
DTITLE=U-Bayou - Tuu-Steppaamaan
DYEAR=1991
DGENRE=Zydeco
TTITLE0=Mamou Two-Step
TTITLE1=Zydeco Gris Gris
TTITLE2=Antaa tuulen puhaltaa
TTITLE3=Luvattu maa
TTITLE4=Mama Rosin
TTITLE5=Sirkka-Liisan häävalssi
TTITLE6=Sea Side Shuffle
TTITLE7=Jäätelöbaarin kaunis Maija
TTITLE8=Ai-Ai-Ai(Nous Ne Buvons Pas D'eau)
TTITLE9=Digi Dingdingdong
TTITLE10=Oi mäntypuu
TTITLE11=Nuoruus zydeco
TTITLE12=Unelmavalssi
EXTD=
EXTT0=
EXTT1=
EXTT2=
EXTT3=
EXTT4=
EXTT5=
EXTT6=
EXTT7=
EXTT8=
EXTT9=
EXTT10=
EXTT11=
EXTT12=
PLAYORDER=
